# xmcd CD database file
#
# Track frame offsets:
#	180
#	15479
#	28121
#	37709
#	49286
#	61360
#	72689
#	86248
#	99690
#	122358
#	133720
#	146972
#	168474
#	188101
#	210432
#	223980
#	241158
#	259065
#	272375
#	309730
#
# Disc length: 4444 seconds
#
# Revision: 0
# Processed by: cddbd v1.5.2PL0 Copyright (c) Steve Scherf et al.
# Submitted via: CDex 1.51
#
DISCID=2b115a14
DTITLE=Various Artist - Let's Do It
DYEAR=1900
DGENRE=Blues
TTITLE0=Think (About It) - Lyn Collins
TTITLE1=We Got More Soul - Dyke and The Blazers
TTITLE2=Pride and Joy - Marvin Gaye
TTITLE3=Paying The Cost To Be The Boss - B.B. King
TTITLE4=I Got The Feeling - James Brown
TTITLE5=Mr. Big Stuff - Jean Knight
TTITLE6=Groove Me - King Floyd
TTITLE7=Turn Back The Hands Of Time - Tyrone Davis
TTITLE8=Doing It To Death - Fred Wesley and J.B.'s
TTITLE9=Hold On, I'm Coming - Sam and Dave
TTITLE10=Function At The Junction - Shorty Long
TTITLE11=Back In Love Again (Every Time I Turn Around) - LTD
TTITLE12=I'll Take You There - Staple Singers
TTITLE13=Fantastic Voyage - Lakeside
TTITLE14=Shotgun - Jr. Walker And The All Stars
TTITLE15=Slippin' Into Darkness - War
TTITLE16=Sing A Simple Song - Sly and The Family Stone
TTITLE17=Love Makes A Woman - Barbara Acklin
TTITLE18=Tonight Is The Night - Betty Wright
TTITLE19=Mister Magic - Grover Washington
EXTD=
EXTT0=
EXTT1=
EXTT2=
EXTT3=
EXTT4=
EXTT5=
EXTT6=
EXTT7=
EXTT8=
EXTT9=
EXTT10=
EXTT11=
EXTT12=
EXTT13=
EXTT14=
EXTT15=
EXTT16=
EXTT17=
EXTT18=
EXTT19=
PLAYORDER=
